<?xml version="1.0" encoding="utf-8"?>
<!-- Generator: Adobe Illustrator 28.7.1, SVG Export Plug-In . SVG Version: 9.03 Build 54978)  -->
<svg version="1.1" id="Ebene_1" xmlns="http://www.w3.org/2000/svg" xmlns:xlink="http://www.w3.org/1999/xlink" x="0px" y="0px"
	 viewBox="0 0 390.64 289.56" style="enable-background:new 0 0 390.64 289.56;" xml:space="preserve">
<style type="text/css">
	.st0{fill:none;stroke:#eaeaeb;stroke-width:3;stroke-linecap:round;stroke-linejoin:round;}
</style>
<path class="st0" d="M71.24,31.52l2.4-0.34c2.8-0.39,5.48,1.24,6.07,4.01c0.51,2.41,0.86,4.85,1.03,7.31
	c0.2,2.82-1.93,5.13-4.73,5.52l-2.4,0.34"/>
<path class="st0" d="M66.29,32.21c3.83-0.54,6.49-4.08,5.95-7.91s-4.08-6.49-7.91-5.95c-0.76,0.11-1.5,0.34-2.19,0.69
	c-1.99-2.46-5.12-3.7-8.26-3.26c-3.14,0.44-5.81,2.49-7.04,5.41c-3.8-0.73-7.47,1.75-8.2,5.55s1.75,7.47,5.55,8.2
	c0.76,0.15,1.53,0.17,2.29,0.06h0c0.15,1.05,0.29,1.97,0.42,2.75c0.37,2.3,2.21,3.95,4.51,3.62c2.31-0.32,3.61-2.42,3.34-4.73
	c-0.1-0.84-0.2-1.61-0.35-2.76L66.29,32.21z"/>
<path class="st0" d="M70.7,29.75c0.48,2.25,1.05,5.39,1.65,9.69c0.46,3.25,0.71,5.87,0.85,7.95c0.29,4.67-2.78,8.2-7.39,9.03
	c-1.66,0.3-3.67,0.62-6.08,0.96c-2.42,0.34-4.43,0.58-6.11,0.75c-4.66,0.48-8.59-2.07-9.59-6.64c-0.45-2.03-0.92-4.62-1.38-7.87
	c-0.6-4.3-0.92-7.47-1.08-9.77"/>
<path class="st0" d="M117.14,40.11c1.34,9.38,9.7,16.91,19.81,16.91s18.47-7.53,19.81-16.91c0.21-1.5-0.94-2.74-2.45-2.82
	c-2.71-0.13-7.92-0.28-17.36-0.28c-9.45,0-14.65,0.15-17.36,0.28C118.08,37.37,116.92,38.61,117.14,40.11L117.14,40.11z"/>
<path class="st0" d="M151.07,42.02c-1.23,3.37-3.6,6.2-6.7,8"/>
<path class="st0" d="M126.78,31.4c-0.69-0.69-0.43-1.79,0.17-2.56c1.89-2.4,6.31-7.89,10.84-12.64c1.08-1.13,2.69-1.81,3.94-0.88
	c0.43,0.32,0.81,0.7,1.13,1.13c0.93,1.26,0.26,2.86-0.88,3.94c-4.75,4.52-10.24,8.94-12.64,10.84
	C128.57,31.84,127.47,32.1,126.78,31.4z"/>
<path class="st0" d="M138.53,31.96c-0.49-0.85,0.04-1.85,0.83-2.43c2.45-1.83,8.14-5.99,13.74-9.41c1.33-0.82,3.06-1.05,4.03,0.17
	c0.33,0.42,0.6,0.89,0.8,1.39c0.58,1.45-0.49,2.83-1.87,3.58c-5.76,3.14-12.21,5.99-15.01,7.2
	C140.15,32.84,139.02,32.8,138.53,31.96z"/>
<path class="st0" d="M300.07,25.32c0.95-0.11,1.9-0.18,2.86-0.21c1.2-0.04,2.35,0.51,3.07,1.47c1.79,2.34,4.78,7.57,3.69,15.33
	c-1.03,7.35-1.98,11.75-2.6,14.17c-0.4,1.55-1.79,2.53-3.39,2.46c-3.02-0.13-8.7-0.53-17.32-1.74c-8.62-1.21-14.17-2.39-17.11-3.1
	c-1.55-0.38-2.62-1.7-2.57-3.3c0.07-2.35,0.33-6.47,1.23-13.07c0.11-0.83,0.47-1.6,1.11-2.13c3.79-3.06,11.86-5.87,19.49-7.74"/>
<path class="st0" d="M300.47,28.5c-0.46,3.28-3.5,5.57-6.78,5.11c-3.28-0.46-5.57-3.5-5.11-6.78c0.46-3.28,3.5-5.57,6.78-5.11
	C298.64,22.18,300.93,25.22,300.47,28.5z"/>
<path class="st0" d="M295.36,21.72c0.46-3.28-1.59-6.28-5.11-6.78"/>
<line class="st0" x1="307.45" y1="50.68" x2="267.84" y2="45.12"/>
<line class="st0" x1="309.69" y1="41.91" x2="269.09" y2="36.2"/>
<path class="st0" d="M386.54,33.42c-1.71-6.36-3.08-10.2-3.93-12.31c-0.04-0.11-0.09-0.21-0.15-0.31c-2.66-5.85-7.58-6.42-8.49-6.48
	c-0.1-0.01-0.18-0.01-0.28-0.01c-3.35,0.09-26.96,7.19-30.06,15.7c-0.33,0.67-0.45,1.44-0.33,2.24c0.01,0.1,0.03,0.2,0.05,0.3
	c0,0.02,0.01,0.04,0.01,0.06c0.38,2.37,1.12,6.12,2.61,11.67"/>
<path class="st0" d="M343.37,32.52c-0.28-1.82,0.72-3.48,2.45-4.11c2.67-0.98,7.62-2.62,16.3-4.95c9.35-2.5,14.54-3.54,17.19-3.97
	c1.46-0.24,2.81,0.51,3.36,1.88c0.85,2.09,2.2,5.86,3.87,12.11c1.41,5.26,2.14,8.89,2.52,11.24c0.35,2.19-0.84,4.16-2.92,4.91
	c-2.78,1-7.63,2.57-15.74,4.74c-8.11,2.17-13.1,3.24-16.01,3.77c-2.18,0.39-4.2-0.72-4.98-2.79c-0.85-2.22-2.03-5.73-3.43-10.99
	C344.45,38.63,343.72,34.83,343.37,32.52z"/>
<path class="st0" d="M358.69,33.81c0.57,2.13,2.76,3.4,4.9,2.83c2.13-0.57,3.4-2.76,2.83-4.9c-0.57-2.13-2.77-3.4-4.9-2.83
	C359.38,29.48,358.12,31.67,358.69,33.81z"/>
<path class="st0" d="M379.25,44.86c-2.13,0.57-4.33-0.69-4.9-2.83c-0.57-2.13,0.7-4.33,2.83-4.9c2.13-0.57,4.33,0.69,4.9,2.83
	C382.65,42.1,381.39,44.29,379.25,44.86z"/>
<path class="st0" d="M349.06,54.4c0.87,0.17,1.79,0.15,2.7-0.1c3.2-0.86,5.1-4.15,4.24-7.35c-0.86-3.2-4.15-5.1-7.35-4.24
	c-1.05,0.28-1.97,0.83-2.69,1.55"/>
<path class="st0" d="M30.07,91.25c-1.66-2.57-4.51-4.13-7.57-4.13c-3.06,0-5.91,1.55-7.57,4.13c-3.25-3-8.31-2.8-11.31,0.45
	c-3,3.24-2.8,8.31,0.45,11.3c0.9,0.83,1.97,1.44,3.15,1.79c0.56,7.2,1.29,14.38,2.18,21.55c0.17,1.36,1.25,2.4,2.62,2.49
	c2.09,0.13,5.58,0.29,10.48,0.29c4.9,0,8.39-0.16,10.48-0.29c1.37-0.09,2.45-1.13,2.62-2.49c0.89-7.17,1.62-14.35,2.18-21.55
	c4.24-1.26,6.64-5.72,5.39-9.95c-1.26-4.23-5.72-6.65-9.95-5.39C32.04,89.81,30.96,90.42,30.07,91.25z"/>
<path class="st0" d="M36.25,121.49c-2.56-0.13-6.84-0.26-13.75-0.26s-11.2,0.13-13.75,0.26"/>
<line class="st0" x1="17.5" y1="105.12" x2="18.5" y2="113.12"/>
<line class="st0" x1="27.5" y1="105.12" x2="26.5" y2="113.12"/>
<path class="st0" d="M94.09,86.12c3.06,3.6,6.71,5.9,10.77,7.61c3.71,1.56,9.19,2.81,13.46,1.93"/>
<path class="st0" d="M75.62,110.61c-1.54,4.73,1.05,9.81,5.78,11.34c4.73,1.54,9.8-1.05,11.34-5.78c1.54-4.73-1.05-9.8-5.78-11.34
	C82.23,103.3,77.15,105.89,75.62,110.61"/>
<path class="st0" d="M106.17,94.25c-8.71,0.34-14.98,4.05-18.26,10.89"/>
<path class="st0" d="M106.17,94.25c-0.61,3.75-0.96,8.33,0.9,12.64"/>
<path class="st0" d="M117.11,118.84c-1.54,4.73-6.61,7.31-11.34,5.78c-4.73-1.54-7.31-6.61-5.78-11.34
	c1.54-4.73,6.61-7.32,11.34-5.78C116.05,109.03,118.64,114.11,117.11,118.84z"/>
<path class="st0" d="M112.35,117.29c0.68-2.1-0.47-4.36-2.57-5.04"/>
<path class="st0" d="M87.98,114.63c0.68-2.1-0.47-4.36-2.57-5.04"/>
<path class="st0" d="M186.06,120.46c-7.37,7.31-18.19,11.03-25.85,4.03c-0.38-0.35-0.76-0.71-1.15-1.1
	c-0.38-0.39-0.75-0.77-1.1-1.15c-7-7.66-3.28-18.48,4.02-25.85c0.27-0.27,0.55-0.55,0.83-0.84s0.56-0.56,0.84-0.83
	c7.37-7.31,18.19-11.03,25.85-4.03c0.38,0.35,0.76,0.71,1.15,1.1c0.38,0.38,0.75,0.77,1.1,1.15c7,7.66,3.28,18.48-4.02,25.85
	c-0.27,0.27-0.55,0.55-0.83,0.84C186.61,119.91,186.33,120.19,186.06,120.46z"/>
<path class="st0" d="M191.55,92.69c-8.16,0.87-14.27,5.52-16.69,14.9c-2.43,9.38-8.54,14.03-16.69,14.9"/>
<path class="st0" d="M228.96,102.92c-3.18,3.4-3.48,8.02-0.44,11.54c1.24,1.43,2.82,3.14,4.84,5.16c2.02,2.02,3.73,3.61,5.16,4.84
	c3.52,3.05,8.14,2.75,11.54-0.43c1.08-1.01,2.34-2.23,3.81-3.7c3.94-3.94,6.15-6.46,7.35-7.94c0.84-1.04,0.9-2.41,0.1-3.48
	c-1.22-1.65-3.62-4.55-8.16-9.09c-4.54-4.54-7.44-6.94-9.09-8.16c-1.07-0.8-2.45-0.74-3.48,0.1c-1.47,1.2-4,3.42-7.94,7.35
	C231.19,100.58,229.97,101.84,228.96,102.92z"/>
<path class="st0" d="M260.23,113.96l1.86,1.86c1.93,1.93,2.29,4.93,0.49,6.98c-1.06,1.21-2.2,2.35-3.41,3.41
	c-2.06,1.8-5.05,1.44-6.98-0.49l-1.86-1.86"/>
<line class="st0" x1="266.6" y1="93.45" x2="261.65" y2="98.4"/>
<line class="st0" x1="259.53" y1="89.21" x2="254.58" y2="94.16"/>
<path class="st0" d="M343.38,111.85c-7.05,7.05-19.72,10.58-25.36,4.95c-5.64-5.64-2.1-18.32,4.94-25.36
	c7.05-7.05,14.94-5.8,20.58-0.16C349.17,96.92,350.42,104.81,343.38,111.85z"/>
<path class="st0" d="M316.08,113.84l-3.02,4.23c-0.36,0.5-1.09,0.55-1.64,0.28c-0.48-0.24-1.02-0.37-1.59-0.37
	c-1.99,0-3.61,1.61-3.61,3.61c0,1.62,1.06,2.98,2.53,3.44c0.49,0.15,0.89,0.55,1.04,1.04c0.46,1.46,1.83,2.53,3.44,2.53
	c1.99,0,3.61-1.61,3.61-3.61c0-0.57-0.13-1.11-0.37-1.59c-0.27-0.55-0.22-1.28,0.28-1.64l4.23-3.03"/>
<path class="st0" d="M337.43,109.14c-3.24,3.24-8.55,5.19-12.21,4.19"/>
<path class="st0" d="M67.55,194.9c8.99-0.47,14.53-9.34,14.19-15.76c-0.34-6.42-6.78-14.67-15.76-14.2
	c-7.98,0.42-14.37,5.99-17.69,10.62c-0.23-0.74-0.53-1.46-0.91-2.14c-1.2-2.18-3.78-3.59-5.62-4.37c-1.08-0.46-2.22,0.27-2.31,1.44
	c-0.17,2.29-0.18,5.87,1.09,8.16c0.63,1.15,1.31,1.98,2.01,2.53c-0.63,0.63-1.22,1.53-1.73,2.73c-1.02,2.41-0.64,5.97-0.23,8.23
	c0.21,1.16,1.42,1.76,2.45,1.2c1.75-0.96,4.16-2.64,5.13-4.93c0.33-0.79,0.56-1.53,0.68-2.22C52.63,190.44,59.56,195.31,67.55,194.9
	z"/>
<path class="st0" d="M65.59,170.36c-3.13,4.93-2.62,14.6,1,19.17"/>
<path class="st0" d="M57.56,176.39c-0.56,2.02-0.35,6.04,0.42,7.99"/>
<line class="st0" x1="71.54" y1="175.66" x2="71.6" y2="176.66"/>
<path class="st0" d="M137.51,167.37c2.81-0.76,5.52-1.47,7.91-2.07c0.86-0.21,1.76-0.25,2.6,0.01c3.99,1.25,7.27,4.28,8.74,5.81
	c0.57,0.59,0.95,1.33,1.17,2.12c1.25,4.51,2.05,8.22,2.53,10.79c0.43,2.26-0.88,4.43-3.06,5.18c-0.34,0.12-0.71,0.24-1.09,0.37"/>
<path class="st0" d="M145.91,192.88c-1.51,0.45-3.11,0.93-4.82,1.42s-3.32,0.94-4.84,1.35"/>
<path class="st0" d="M125.67,198.36c-0.51,0.12-0.99,0.23-1.43,0.34c-2.1,0.48-4.22-0.5-5.05-2.49c-0.76-1.82-1.71-4.4-2.67-7.74
	l-0.45-1.57"/>
<path class="st0" d="M151.96,174.04c-1.37-1.4-3.56-3.26-5.99-3.84c-0.24-0.06-0.5-0.04-0.74,0.03c-0.86,0.25-1.36,1.14-1.11,2
	l1.21,4.21c0.26,0.89,1.09,1.49,2.01,1.34c1.05-0.17,2.53-0.48,4.06-1.07C152.52,176.27,152.8,174.9,151.96,174.04z"/>
<path class="st0" d="M141.07,179.73l-12.5,3.58l-12.5,3.58l-3.03-10.57c-0.82-2.87-1.36-5.1-1.7-6.74
	c-0.44-2.08,0.72-4.06,2.73-4.77c1.9-0.67,4.66-1.57,8.44-2.65c3.77-1.08,6.6-1.78,8.56-2.22c2.08-0.47,4.1,0.6,4.84,2.6
	c0.58,1.57,1.31,3.74,2.13,6.61L141.07,179.73z"/>
<path class="st0" d="M146.03,193.4c0.84,2.92,3.88,4.61,6.8,3.77c2.92-0.84,4.61-3.88,3.77-6.8c-0.84-2.92-3.88-4.61-6.8-3.77
	C146.88,187.43,145.19,190.48,146.03,193.4z"/>
<path class="st0" d="M125.84,199.19c0.84,2.92,3.88,4.61,6.8,3.77c2.92-0.84,4.61-3.88,3.77-6.8c-0.84-2.92-3.88-4.61-6.8-3.77
	C126.69,193.22,125.01,196.27,125.84,199.19z"/>
<path class="st0" d="M112.22,173.44c0.61,2.12,2.97,3.31,5.27,2.65c2.3-0.66,3.67-2.92,3.06-5.04c0.61,2.12,2.97,3.31,5.27,2.65
	c2.3-0.66,3.67-2.92,3.06-5.04c0.61,2.12,2.97,3.31,5.27,2.65c2.3-0.66,3.67-2.92,3.06-5.04"/>
<line class="st0" x1="120.55" y1="171.05" x2="118.48" y2="163.84"/>
<line class="st0" x1="128.88" y1="168.67" x2="126.81" y2="161.46"/>
<path class="st0" d="M204.18,159.32c4.73-0.7,14.09,1.07,23.05,9.27c0.93,0.85,1.34,2.12,0.9,3.31c-0.31,0.84-0.78,1.93-1.51,3.17
	c-0.27,0.45-0.16,1.03,0.26,1.35l6.93,5.2c1.92,1.45,2.77,3.61,1.58,5.71c-1.11,1.96-3.77,2.58-5.37,0.99l-26.46-26.46
	C202.68,160.94,202.91,159.51,204.18,159.32z"/>
<path class="st0" d="M198.5,168.15c2.25,1.6,6.06,4.5,9.61,8.12c1.83,1.87,2.25,4.76,0.75,7.14c-0.31,0.49-0.66,1-1.04,1.51l12.6,10
	c1.92,1.52,2.54,4.27,1.06,6.22c-0.17,0.23-0.36,0.45-0.56,0.66c-0.17,0.17-0.4,0.36-0.66,0.56c-1.95,1.48-4.7,0.86-6.22-1.06
	l-10-12.6c-0.49,0.37-0.99,0.71-1.51,1.04c-2.38,1.51-5.27,1.08-7.15-0.75c-3.62-3.55-6.52-7.36-8.12-9.61
	c-0.81-1.15-0.64-2.69,0.35-3.68l7.21-7.21C195.81,167.5,197.35,167.33,198.5,168.15z"/>
<line class="st0" x1="189.44" y1="173.86" x2="196.87" y2="182"/>
<line class="st0" x1="192.98" y1="170.33" x2="201.11" y2="177.75"/>
<path class="st0" d="M310.81,159.88c-11.05,0-20,8.95-20,20c0,11.05,8.95,20,20,20"/>
<path class="st0" d="M310.81,167.88c-6.63,0-12,5.37-12,12c0,6.63,5.37,12,12,12"/>
<path class="st0" d="M285.26,162.23c0.46,2.72,1.1,7.47,1.05,12.54c-0.03,2.62-1.77,4.96-4.52,5.58c-0.57,0.13-1.17,0.24-1.8,0.33
	l1.78,13.93c0.31,2.45-1.19,4.88-3.64,5.2c-0.3,0.04-0.58,0.06-0.81,0.06c-0.23,0-0.51-0.02-0.81-0.06
	c-2.45-0.32-3.96-2.75-3.64-5.2l1.78-13.93c-0.63-0.09-1.24-0.2-1.8-0.33c-2.75-0.62-4.5-2.96-4.52-5.58
	c-0.05-5.07,0.59-9.82,1.05-12.54c0.23-1.39,1.45-2.36,2.85-2.36h10.19C283.81,159.88,285.02,160.85,285.26,162.23z"/>
<line class="st0" x1="274.81" y1="159.88" x2="274.31" y2="170.88"/>
<line class="st0" x1="279.81" y1="159.88" x2="280.31" y2="170.88"/>
<circle class="st0" cx="365.49" cy="177.88" r="10"/>
<path class="st0" d="M369.49,177.88c0-2.21-1.79-4-4-4"/>
<path class="st0" d="M365.49,158.88c-12,0-21,10.81-21,24c0,9.82,6.37,18,14.22,18c2.89,0,5.58-1.08,7.82-2.93
	c2.54-2.1,5.87-3.04,8.92-3.04c6.1,0,11.04-6.18,11.04-13.81C386.49,169.88,378.99,158.88,365.49,158.88z"/>
<path class="st0" d="M19.24,230.57c-4.37-0.58-8.11,1.96-9.07,6.27c-0.58,2.64-1.11,5.3-1.57,7.97c-0.58,3.31-0.98,5.94-1.25,8.03
	c-0.56,4.38,2.07,8.04,6.38,8.99c1.84,0.4,4.1,0.86,6.86,1.34c2.76,0.49,5.04,0.84,6.91,1.08c4.37,0.58,8.1-1.96,9.07-6.27
	c0.46-2.05,0.99-4.66,1.57-7.97c0.58-3.31,0.98-5.95,1.25-8.03c0.57-4.38-2.07-8.04-6.38-8.99c-2.28-0.5-4.57-0.94-6.86-1.34
	C23.85,231.25,21.55,230.88,19.24,230.57z"/>
<path class="st0" d="M15.88,262.28l-1.4,4.4c-0.77,2.43,0.39,5.11,2.82,5.91c0.59,0.2,1.13,0.35,1.56,0.43
	c0.42,0.08,0.99,0.11,1.61,0.13c2.55,0.07,4.56-2.04,4.67-4.59l0.19-4.62"/>
<line class="st0" x1="19.48" y1="240.63" x2="17.4" y2="252.45"/>
<line class="st0" x1="29.33" y1="242.37" x2="27.25" y2="254.19"/>
<path class="st0" d="M80.48,233.94c-0.87,0.19-1.63,0.75-1.91,1.58c-1.19,3.5,0.32,9.34,2,14.46c-1.41,3.06-2.14,6.5-1.89,10.12
	c0.18,2.52,0.98,13.95,21.43,12.52c20.46-1.43,19.66-12.85,19.48-15.38c-0.25-3.61-1.46-6.92-3.28-9.76
	c0.95-5.31,1.63-11.3-0.04-14.6c-0.39-0.78-1.22-1.23-2.11-1.3c-5.01-0.39-9.34,2.37-12.54,5.91c-1.34-0.23-2.68-0.31-3.99-0.21
	c-1.31,0.09-2.62,0.35-3.92,0.77C90.05,234.99,85.39,232.86,80.48,233.94z"/>
<line class="st0" x1="105.92" y1="248.85" x2="105.99" y2="249.78"/>
<line class="st0" x1="91.04" y1="249.89" x2="91.11" y2="250.82"/>
<path class="st0" d="M99.72,267.04c-4.45,0.31-8.47-0.93-8.77-5.17c-0.06-0.86-0.44-6.33,7.93-6.92c8.37-0.59,8.75,4.88,8.81,5.75
	C107.98,264.94,104.16,266.72,99.72,267.04z"/>
<line class="st0" x1="102.05" y1="260.33" x2="102.12" y2="261.26"/>
<line class="st0" x1="96.47" y1="260.72" x2="96.54" y2="261.65"/>
<path class="st0" d="M184.71,230.29c2.21-0.05,4.02,1.38,4.49,3.55c0.62,2.89,1.51,7.91,2.54,16.25c1.02,8.34,1.37,13.43,1.47,16.38
	c0.07,2.22-1.34,4.04-3.5,4.53c-2.45,0.55-6.38,1.28-12.29,2.01c-5.91,0.73-9.89,0.97-12.41,1.03c-2.22,0.05-4.03-1.38-4.49-3.55
	c-0.62-2.89-1.51-7.91-2.54-16.25c-1.02-8.34-1.37-13.43-1.47-16.38c-0.07-2.21,1.34-4.04,3.5-4.53c2.45-0.55,6.38-1.28,12.29-2.01
	C178.21,230.59,182.19,230.35,184.71,230.29z"/>
<line class="st0" x1="191.73" y1="250.09" x2="157.99" y2="254.23"/>
<line class="st0" x1="164.46" y1="241.35" x2="164.95" y2="245.32"/>
<line class="st0" x1="166.9" y1="261.2" x2="167.39" y2="265.17"/>
<path class="st0" d="M233.27,249.25c1.2-8.51,6.22-13.86,19.86-11.95c13.63,1.92,16.99,8.44,15.79,16.96
	c-1.31,9.31-12.88,19.81-20.8,18.69C240.2,271.84,231.96,258.57,233.27,249.25z"/>
<path class="st0" d="M239.97,238.52c-1.13-2.3-1.79-4.89-2.13-6.61c-0.2-0.93,0.39-1.86,1.33-2.06c0.11-0.02,0.21-0.04,0.32-0.04
	c2.82-0.11,8.01,0.05,11,2.45c1.35,1.08,2.29,2.21,2.89,3.33c0.89-0.91,2.11-1.73,3.7-2.4c3.53-1.48,8.56-0.21,11.24,0.68
	c1.04,0.34,1.51,1.49,1,2.47c-0.81,1.56-2.15,3.86-3.87,5.77"/>
<line class="st0" x1="246.92" y1="245.52" x2="247.2" y2="243.54"/>
<line class="st0" x1="245.41" y1="263.49" x2="245.69" y2="261.5"/>
<line class="st0" x1="240.72" y1="253.74" x2="241" y2="251.76"/>
<line class="st0" x1="256.83" y1="246.91" x2="257.1" y2="244.93"/>
<line class="st0" x1="253.33" y1="264.6" x2="253.61" y2="262.62"/>
<line class="st0" x1="260.53" y1="256.52" x2="260.8" y2="254.54"/>
<line class="st0" x1="250.62" y1="255.13" x2="250.9" y2="253.15"/>
<path class="st0" d="M344.08,238.34c1.42,0.89,2.44,2.32,2.78,4.26c0.5,2.84-0.72,5.13-2.91,6.53c1.09,6.2,1.89,11.65,2.38,15.28
	c0.37,2.76-1.27,5.36-3.97,6.06c-2.17,0.56-5.07,1.23-8.6,1.85c-3.44,0.61-6.35,0.97-8.56,1.19c-2.04,0.2-3.89-0.76-4.98-2.35"/>
<path class="st0" d="M309.79,234.31c-3.82,0.97-6.37,3.83-5.69,7.71c0.5,2.85,2.46,4.59,5.02,5.15c1.13,6.1,2.18,11.42,2.9,15.01
	c0.56,2.8,3.03,4.77,5.88,4.49c2.22-0.22,5.12-0.58,8.56-1.19c3.52-0.62,6.43-1.29,8.6-1.85c2.7-0.7,4.34-3.29,3.97-6.06
	c-0.49-3.63-1.28-9.08-2.38-15.28c2.19-1.41,3.41-3.7,2.91-6.53c-0.68-3.88-4.06-5.7-7.98-5.3c-2.87,0.29-6.62,0.77-10.96,1.53
	C316.28,232.76,312.59,233.6,309.79,234.31z"/>
<line class="st0" x1="321.2" y1="241.04" x2="321.37" y2="242.02"/>
<line class="st0" x1="330.64" y1="248.51" x2="330.81" y2="249.49"/>
<line class="st0" x1="319.69" y1="255.52" x2="319.86" y2="256.5"/>
<path class="st0" d="M231.15,22.03c0.02-2.25-1.52-3.95-3.71-4.5c-2.17-0.54-5.56-1.29-10.67-2.19c-5.1-0.9-8.55-1.36-10.77-1.59
	c-2.24-0.23-4.27,0.84-5.02,2.96c-0.72,2.02-1.62,5.22-2.48,10.13c-1.25,7.11,2.18,12.83,8.2,15.57c0.97,0.44,1.54,1.49,1.26,2.52
	l-0.95,3.46c-0.32,1.17-1.31,2.02-2.49,2.23c-1.87,0.34-3.72,0.75-5.56,1.23c-0.58,0.15-1.01,0.63-1.11,1.22
	c-0.15,0.85,0.42,1.65,1.26,1.8l20.76,3.66c0.85,0.15,1.66-0.42,1.8-1.26c0.11-0.59-0.14-1.19-0.63-1.53
	c-1.56-1.08-3.17-2.1-4.81-3.06c-1.04-0.6-1.68-1.74-1.58-2.95l0.29-3.58c0.09-1.06,0.99-1.85,2.05-1.94
	c6.59-0.51,11.77-4.72,13.03-11.83C230.88,27.48,231.13,24.18,231.15,22.03L231.15,22.03z"/>
<path class="st0" d="M230.62,28.95c0,0-7.79-1.88-16.16-3.36c-8.37-1.48-15.35-2.2-15.35-2.2"/>
</svg>
