<svg xmlns="http://www.w3.org/2000/svg" xml:space="preserve" x="0" y="0" style="enable-background:new 0 0 123.125 121.85" version="1.1" viewBox="0 0 123.125 121.85"><style>.st2{fill:#fff}.st5{fill:none;stroke:#0071bc;stroke-width:4;stroke-linecap:round;stroke-linejoin:round;stroke-miterlimit:10}</style><circle cx="60.872" cy="60.872" r="60.872" style="fill:#d62b37"/><path d="M109.145 23.994 83.4 14.092c2.98 3.549 4.942 7.831 6.568 11.4.476 1.044.925 2.03 1.374 2.952 4.936 10.139 14.15 39.804 11.123 66.785a5 5 0 0 1-4.31 4.399l-61.881 8.219c-.106.014-.211.014-.316.021l22.666 13.927c.727.026 1.453.055 2.185.055 33.619 0 60.872-27.253 60.872-60.872 0-13.915-4.679-26.731-12.536-36.984z" style="fill:#9c1f28"/><path d="M91.342 28.444c-.449-.922-.898-1.908-1.374-2.952-2.98-6.541-7.062-15.499-16.549-17.896a5.019 5.019 0 0 0-1.883-.108L9.655 15.706a5 5 0 0 0-1.753 9.337c6.733 3.706 10.41 11.131 12.86 17.185.125.31 12.519 31.338 9.873 60.206a5 5 0 0 0 5.638 5.412l61.881-8.219a4.999 4.999 0 0 0 4.31-4.399c3.028-26.98-6.186-56.645-11.122-66.784z" class="st2"/><path d="m101.56 64.806-33.432.617-8.576 6.916 43.368 17.176c.427-8.344-.181-16.792-1.36-24.709z" style="fill:#bababa"/><path d="M97.496 94.671c2.974-26.508-6.404-55.319-10.649-64.038-3.299-6.777-6.285-16.075-14.652-18.189l-61.881 8.219c8.743 4.813 12.988 14.512 15.084 19.689C28.036 46.87 38.07 76.1 35.615 102.89l61.881-8.219z" style="fill:none;stroke:#000;stroke-width:4;stroke-linecap:round;stroke-linejoin:round;stroke-miterlimit:10"/><path d="m34.417 31.314 2.269 5.401 40.126-5.801-2.838-5.151zM40.607 49.508l1.385 5.484 39.533-5.949-1.051-5.409zM43.267 67.969l1.044 5.647 21.982-3.396-1.052-5.408z" class="st5"/><path d="M109.354 7.665c-.158 0-.317.002-.479.006a4.999 4.999 0 0 0-3.527 1.574L64.357 52.842a4.997 4.997 0 0 0-1.01 1.594l-5.155 13.098a5 5 0 0 0 6.286 6.556l13.788-4.766a5 5 0 0 0 2.046-1.34l41.493-45.104a5.002 5.002 0 0 0 1.312-3.671c-.265-4.64-4.15-11.544-13.763-11.544z" class="st2"/><path d="M108.99 12.669 68 56.267l-5.155 13.098 13.788-4.766 41.493-45.104c-.001 0-.402-7.027-9.136-6.826z" style="fill:#009245;stroke:#00562e;stroke-width:4;stroke-linecap:round;stroke-linejoin:round;stroke-miterlimit:10"/></svg>